<svg xmlns="http://www.w3.org/2000/svg" xmlns:xlink="http://www.w3.org/1999/xlink" viewBox="0,0,256,256" width="48px" height="48px" fill-rule="nonzero"><g fill-opacity="0.5098" fill="#ffffff" fill-rule="nonzero" stroke="none" stroke-width="1" stroke-linecap="butt" stroke-linejoin="miter" stroke-miterlimit="10" stroke-dasharray="" stroke-dashoffset="0" font-family="none" font-weight="none" font-size="none" text-anchor="none" style="mix-blend-mode: normal"><g transform="scale(10.66667,10.66667)"><path d="M9,20c0,1.657 1.343,3 3,3c1.657,0 3,-1.343 3,-3z"></path><path d="M19,10.667v-1.373c0,-3.833 -2.953,-7.175 -6.785,-7.29c-3.964,-0.12 -7.215,3.058 -7.215,6.996v1.667c0,1.515 -0.491,2.988 -1.4,4.2l-1.15,1.533c-0.292,0.389 -0.45,0.863 -0.45,1.35v0c0,1.243 1.007,2.25 2.25,2.25h15.5c1.243,0 2.25,-1.007 2.25,-2.25v0c0,-0.487 -0.158,-0.961 -0.45,-1.35l-1.15,-1.533c-0.909,-1.212 -1.4,-2.686 -1.4,-4.2z" opacity="0.35"></path></g></g></svg>