<svg class="svg-icon" style="width: 1em; height: 1em;vertical-align: middle;fill: currentColor;overflow: hidden;" viewBox="0 0 1024 1024" version="1.1" xmlns="http://www.w3.org/2000/svg"><path d="M509.44 955.733333c-51.712 0-96.529067-18.619733-133.256533-55.3472-36.1472-36.164267-54.4768-80.708267-54.4768-132.386133 0-34.184533 8.226133-65.774933 24.4736-93.866667a54.954667 54.954667 0 0 1 4.7616-7.697066l144.5888-248.354134c3.072-5.256533 8.686933-8.482133 14.762666-8.482133h0.034134a17.0496 17.0496 0 0 1 14.7456 8.5504l145.92 253.661867c0.682667 0.8192 1.314133 1.655467 1.706666 2.304 16.2304 28.091733 24.4736 59.682133 24.4736 93.883733 0 51.746133-18.653867 96.324267-55.432533 132.488533C605.781333 937.079467 561.2032 955.733333 509.44 955.733333z m0.768-494.984533l-130.218667 223.675733c-0.341333 0.580267-0.7168 1.143467-1.1264 1.6896a26.965333 26.965333 0 0 0-2.628266 4.1984c-13.704533 23.739733-20.394667 49.578667-20.394667 77.687467 0 42.9056 14.557867 78.301867 44.4928 108.253867C430.830933 906.769067 466.517333 921.6 509.44 921.6c42.8544 0 78.2336-14.7968 108.151467-45.243733 30.634667-30.139733 45.431467-65.501867 45.431466-108.356267 0-27.528533-6.417067-52.8896-19.080533-75.3664a22.698667 22.698667 0 0 1-1.6896-2.304l-132.0448-229.5808zM814.08 529.066667c-39.816533 0-74.308267-14.318933-102.519467-42.564267-28.228267-28.194133-42.5472-62.685867-42.5472-102.5024 0-17.373867 2.952533-34.048 8.789334-49.527467l119.978666-256.375466A17.066667 17.066667 0 0 1 813.1584 68.266667h0.068267c6.587733 0 12.561067 3.7888 15.394133 9.728l122.0096 256c0.290133 0.5632 0.512 1.143467 0.7168 1.7408 5.1712 14.848 7.7824 31.095467 7.7824 48.264533 0 39.799467-14.318933 74.2912-42.5472 102.519467C888.388267 514.747733 853.879467 529.066667 814.08 529.066667z m-0.7168-403.780267l-104.157867 222.429867A106.496 106.496 0 0 0 703.146667 384c0 30.856533 10.6496 56.490667 32.546133 78.370133C757.589333 484.283733 783.223467 494.933333 814.08 494.933333c30.856533 0 56.490667-10.6496 78.3872-32.546133 21.896533-21.9136 32.546133-47.547733 32.546133-78.3872 0-13.021867-1.877333-25.1904-5.597866-36.215467L813.3632 125.2864zM209.92 529.066667c-39.799467 0-74.2912-14.318933-102.519467-42.5472C79.172267 458.308267 64.853333 423.816533 64.853333 384c0-17.322667 2.952533-33.979733 8.772267-49.5104l119.995733-256.392533A17.032533 17.032533 0 0 1 209.015467 68.266667h0.0512c6.570667 0 12.578133 3.7888 15.4112 9.728l122.026666 256c0.273067 0.5632 0.494933 1.143467 0.7168 1.7408 5.154133 14.813867 7.7824 31.061333 7.7824 48.2816 0 39.799467-14.318933 74.2912-42.5472 102.519466C284.2112 514.747733 249.719467 529.066667 209.92 529.066667z m-0.7168-403.780267L105.0624 347.716267A106.3424 106.3424 0 0 0 98.986667 384c0 30.856533 10.6496 56.490667 32.546133 78.370133C153.429333 484.283733 179.063467 494.933333 209.92 494.933333c30.839467 0 56.490667-10.6496 78.3872-32.546133S320.853333 414.839467 320.853333 384c0-13.056-1.877333-25.224533-5.5808-36.1984L209.2032 125.2864z"  /></svg>